<svg width="192" height="160" viewBox="0 0 192 160" fill="none" xmlns="http://www.w3.org/2000/svg">
<path d="M192 72V88C192 90.1217 191.157 92.1566 189.657 93.6569C188.157 95.1572 186.122 96 184 96H8C5.87827 96 3.84344 95.1572 2.34315 93.6569C0.842856 92.1566 0 90.1217 0 88V72C0 69.8783 0.842856 67.8434 2.34315 66.3431C3.84344 64.8429 5.87827 64 8 64H184C186.122 64 188.157 64.8429 189.657 66.3431C191.157 67.8434 192 69.8783 192 72ZM184 128H8C5.87827 128 3.84344 128.843 2.34315 130.343C0.842856 131.843 0 133.878 0 136V152C0 154.122 0.842856 156.157 2.34315 157.657C3.84344 159.157 5.87827 160 8 160H184C186.122 160 188.157 159.157 189.657 157.657C191.157 156.157 192 154.122 192 152V136C192 133.878 191.157 131.843 189.657 130.343C188.157 128.843 186.122 128 184 128ZM184 0H8C5.87827 0 3.84344 0.842856 2.34315 2.34315C0.842856 3.84344 0 5.87827 0 8V24C0 26.1217 0.842856 28.1566 2.34315 29.6569C3.84344 31.1571 5.87827 32 8 32H184C186.122 32 188.157 31.1571 189.657 29.6569C191.157 28.1566 192 26.1217 192 24V8C192 5.87827 191.157 3.84344 189.657 2.34315C188.157 0.842856 186.122 0 184 0Z" fill="white"/>
</svg>
