<svg width="459" height="294" viewBox="0 0 459 294" fill="none" xmlns="http://www.w3.org/2000/svg">
<rect width="459" height="294" fill="#1E1E1E"/>
<path d="M427 158V174C427 176.122 426.157 178.157 424.657 179.657C423.157 181.157 421.122 182 419 182H243C240.878 182 238.843 181.157 237.343 179.657C235.843 178.157 235 176.122 235 174V158C235 155.878 235.843 153.843 237.343 152.343C238.843 150.843 240.878 150 243 150H419C421.122 150 423.157 150.843 424.657 152.343C426.157 153.843 427 155.878 427 158ZM419 214H243C240.878 214 238.843 214.843 237.343 216.343C235.843 217.843 235 219.878 235 222V238C235 240.122 235.843 242.157 237.343 243.657C238.843 245.157 240.878 246 243 246H419C421.122 246 423.157 245.157 424.657 243.657C426.157 242.157 427 240.122 427 238V222C427 219.878 426.157 217.843 424.657 216.343C423.157 214.843 421.122 214 419 214ZM419 86H243C240.878 86 238.843 86.8429 237.343 88.3431C235.843 89.8434 235 91.8783 235 94V110C235 112.122 235.843 114.157 237.343 115.657C238.843 117.157 240.878 118 243 118H419C421.122 118 423.157 117.157 424.657 115.657C426.157 114.157 427 112.122 427 110V94C427 91.8783 426.157 89.8434 424.657 88.3431C423.157 86.8429 421.122 86 419 86Z" fill="white"/>
<rect width="203" height="236" fill="#D9D9D9"/>
</svg>
